<mxfile host="app.diagrams.net" modified="2024-02-28T06:34:37.760Z" agent="Mozilla/5.0 (Windows NT 10.0; Win64; x64) AppleWebKit/537.36 (KHTML, like Gecko) Chrome/122.0.0.0 Safari/537.36" etag="1_0EKn69jL3GcYTc7GRw" version="23.1.6" type="github">
  <diagram name="第 1 页" id="vNJN2t3EYVJDZvXKAtCr">
    <mxGraphModel dx="2261" dy="749" grid="1" gridSize="10" guides="1" tooltips="1" connect="1" arrows="1" fold="1" page="1" pageScale="1" pageWidth="827" pageHeight="1169" math="0" shadow="0">
      <root>
        <mxCell id="0" />
        <mxCell id="1" parent="0" />
        <mxCell id="5PsLchWqbpypYUlyOTgr-3" value="" style="edgeStyle=orthogonalEdgeStyle;rounded=0;orthogonalLoop=1;jettySize=auto;html=1;" edge="1" parent="1" source="5PsLchWqbpypYUlyOTgr-1" target="5PsLchWqbpypYUlyOTgr-64">
          <mxGeometry relative="1" as="geometry">
            <mxPoint x="-120" y="330" as="targetPoint" />
          </mxGeometry>
        </mxCell>
        <mxCell id="5PsLchWqbpypYUlyOTgr-1" value="个人信息" style="ellipse;whiteSpace=wrap;html=1;" vertex="1" parent="1">
          <mxGeometry x="-180" y="310" width="120" height="80" as="geometry" />
        </mxCell>
        <mxCell id="5PsLchWqbpypYUlyOTgr-12" value="" style="edgeStyle=orthogonalEdgeStyle;rounded=0;orthogonalLoop=1;jettySize=auto;html=1;" edge="1" parent="1" source="5PsLchWqbpypYUlyOTgr-9" target="5PsLchWqbpypYUlyOTgr-11">
          <mxGeometry relative="1" as="geometry" />
        </mxCell>
        <mxCell id="5PsLchWqbpypYUlyOTgr-13" value="" style="edgeStyle=orthogonalEdgeStyle;rounded=0;orthogonalLoop=1;jettySize=auto;html=1;" edge="1" parent="1" source="5PsLchWqbpypYUlyOTgr-9" target="5PsLchWqbpypYUlyOTgr-11">
          <mxGeometry relative="1" as="geometry" />
        </mxCell>
        <mxCell id="5PsLchWqbpypYUlyOTgr-16" value="" style="edgeStyle=orthogonalEdgeStyle;rounded=0;orthogonalLoop=1;jettySize=auto;html=1;entryX=0.5;entryY=0;entryDx=0;entryDy=0;" edge="1" parent="1" source="5PsLchWqbpypYUlyOTgr-9" target="5PsLchWqbpypYUlyOTgr-18">
          <mxGeometry relative="1" as="geometry">
            <mxPoint x="-120" y="610" as="targetPoint" />
          </mxGeometry>
        </mxCell>
        <mxCell id="5PsLchWqbpypYUlyOTgr-9" value="是否配置&lt;br&gt;审批流" style="rhombus;whiteSpace=wrap;html=1;fillColor=#76608a;fontColor=#ffffff;strokeColor=#432D57;" vertex="1" parent="1">
          <mxGeometry x="-160" y="610" width="80" height="80" as="geometry" />
        </mxCell>
        <mxCell id="5PsLchWqbpypYUlyOTgr-37" style="edgeStyle=orthogonalEdgeStyle;rounded=0;orthogonalLoop=1;jettySize=auto;html=1;entryX=1;entryY=0.5;entryDx=0;entryDy=0;" edge="1" parent="1" source="5PsLchWqbpypYUlyOTgr-11" target="5PsLchWqbpypYUlyOTgr-33">
          <mxGeometry relative="1" as="geometry">
            <Array as="points">
              <mxPoint x="830" y="510" />
            </Array>
          </mxGeometry>
        </mxCell>
        <mxCell id="5PsLchWqbpypYUlyOTgr-11" value="保存员工信息" style="whiteSpace=wrap;html=1;fillColor=#60a917;fontColor=#ffffff;strokeColor=#2D7600;" vertex="1" parent="1">
          <mxGeometry x="770" y="620" width="120" height="60" as="geometry" />
        </mxCell>
        <mxCell id="5PsLchWqbpypYUlyOTgr-22" value="" style="edgeStyle=orthogonalEdgeStyle;rounded=0;orthogonalLoop=1;jettySize=auto;html=1;" edge="1" parent="1" source="5PsLchWqbpypYUlyOTgr-18" target="5PsLchWqbpypYUlyOTgr-21">
          <mxGeometry relative="1" as="geometry" />
        </mxCell>
        <mxCell id="5PsLchWqbpypYUlyOTgr-18" value="未提交状态" style="whiteSpace=wrap;html=1;fillColor=#74E1FC;strokeColor=#6c8ebf;" vertex="1" parent="1">
          <mxGeometry x="-180" y="771" width="120" height="60" as="geometry" />
        </mxCell>
        <mxCell id="5PsLchWqbpypYUlyOTgr-27" value="" style="edgeStyle=orthogonalEdgeStyle;rounded=0;orthogonalLoop=1;jettySize=auto;html=1;" edge="1" parent="1" source="5PsLchWqbpypYUlyOTgr-21" target="5PsLchWqbpypYUlyOTgr-26">
          <mxGeometry relative="1" as="geometry" />
        </mxCell>
        <mxCell id="5PsLchWqbpypYUlyOTgr-32" value="" style="edgeStyle=orthogonalEdgeStyle;rounded=0;orthogonalLoop=1;jettySize=auto;html=1;" edge="1" parent="1" source="5PsLchWqbpypYUlyOTgr-21" target="5PsLchWqbpypYUlyOTgr-31">
          <mxGeometry relative="1" as="geometry" />
        </mxCell>
        <mxCell id="5PsLchWqbpypYUlyOTgr-21" value="单据附件上传" style="whiteSpace=wrap;html=1;fillColor=#74E1FC;strokeColor=#6c8ebf;" vertex="1" parent="1">
          <mxGeometry x="90" y="771" width="120" height="60" as="geometry" />
        </mxCell>
        <mxCell id="5PsLchWqbpypYUlyOTgr-23" value="单据附件按钮展示" style="text;html=1;align=center;verticalAlign=middle;resizable=0;points=[];autosize=1;strokeColor=none;fillColor=none;" vertex="1" parent="1">
          <mxGeometry x="-40" y="771" width="120" height="30" as="geometry" />
        </mxCell>
        <mxCell id="5PsLchWqbpypYUlyOTgr-47" value="" style="edgeStyle=orthogonalEdgeStyle;rounded=0;orthogonalLoop=1;jettySize=auto;html=1;entryX=0;entryY=0.5;entryDx=0;entryDy=0;" edge="1" parent="1" source="5PsLchWqbpypYUlyOTgr-26" target="5PsLchWqbpypYUlyOTgr-49">
          <mxGeometry relative="1" as="geometry">
            <mxPoint x="494" y="801" as="targetPoint" />
          </mxGeometry>
        </mxCell>
        <mxCell id="5PsLchWqbpypYUlyOTgr-26" value="变更单提交&lt;br&gt;（审批流）" style="whiteSpace=wrap;html=1;fillColor=#ffcc99;strokeColor=#36393d;" vertex="1" parent="1">
          <mxGeometry x="320" y="771" width="120" height="60" as="geometry" />
        </mxCell>
        <mxCell id="5PsLchWqbpypYUlyOTgr-63" style="edgeStyle=orthogonalEdgeStyle;rounded=0;orthogonalLoop=1;jettySize=auto;html=1;" edge="1" parent="1" source="5PsLchWqbpypYUlyOTgr-31" target="5PsLchWqbpypYUlyOTgr-33">
          <mxGeometry relative="1" as="geometry" />
        </mxCell>
        <mxCell id="5PsLchWqbpypYUlyOTgr-31" value="取消编辑&lt;br&gt;（变更单删除）" style="whiteSpace=wrap;html=1;fillColor=#fa6800;fontColor=#000000;strokeColor=#C73500;" vertex="1" parent="1">
          <mxGeometry x="90" y="480" width="120" height="60" as="geometry" />
        </mxCell>
        <mxCell id="5PsLchWqbpypYUlyOTgr-33" value="结束" style="ellipse;whiteSpace=wrap;html=1;" vertex="1" parent="1">
          <mxGeometry x="450" y="470" width="120" height="80" as="geometry" />
        </mxCell>
        <mxCell id="5PsLchWqbpypYUlyOTgr-56" style="edgeStyle=orthogonalEdgeStyle;rounded=0;orthogonalLoop=1;jettySize=auto;html=1;entryX=0.5;entryY=1;entryDx=0;entryDy=0;" edge="1" parent="1" source="5PsLchWqbpypYUlyOTgr-48" target="5PsLchWqbpypYUlyOTgr-11">
          <mxGeometry relative="1" as="geometry" />
        </mxCell>
        <mxCell id="5PsLchWqbpypYUlyOTgr-60" style="edgeStyle=orthogonalEdgeStyle;rounded=0;orthogonalLoop=1;jettySize=auto;html=1;entryX=0.5;entryY=1;entryDx=0;entryDy=0;" edge="1" parent="1" source="5PsLchWqbpypYUlyOTgr-48" target="5PsLchWqbpypYUlyOTgr-18">
          <mxGeometry relative="1" as="geometry">
            <mxPoint x="-70" y="1000" as="targetPoint" />
            <Array as="points">
              <mxPoint x="830" y="970" />
              <mxPoint x="-120" y="970" />
            </Array>
          </mxGeometry>
        </mxCell>
        <mxCell id="5PsLchWqbpypYUlyOTgr-48" value="审批通过" style="rhombus;whiteSpace=wrap;html=1;fillColor=#6a00ff;strokeColor=#3700CC;fontColor=#ffffff;" vertex="1" parent="1">
          <mxGeometry x="790" y="761" width="80" height="80" as="geometry" />
        </mxCell>
        <mxCell id="5PsLchWqbpypYUlyOTgr-54" value="" style="edgeStyle=orthogonalEdgeStyle;rounded=0;orthogonalLoop=1;jettySize=auto;html=1;" edge="1" parent="1" source="5PsLchWqbpypYUlyOTgr-49" target="5PsLchWqbpypYUlyOTgr-53">
          <mxGeometry relative="1" as="geometry" />
        </mxCell>
        <mxCell id="5PsLchWqbpypYUlyOTgr-55" style="edgeStyle=orthogonalEdgeStyle;rounded=0;orthogonalLoop=1;jettySize=auto;html=1;entryX=0;entryY=0.5;entryDx=0;entryDy=0;" edge="1" parent="1" source="5PsLchWqbpypYUlyOTgr-49" target="5PsLchWqbpypYUlyOTgr-48">
          <mxGeometry relative="1" as="geometry" />
        </mxCell>
        <mxCell id="5PsLchWqbpypYUlyOTgr-49" value="通过审批中心、消息待办打开变更单" style="whiteSpace=wrap;html=1;fillColor=#ffcc99;strokeColor=#36393d;" vertex="1" parent="1">
          <mxGeometry x="575" y="771" width="120" height="60" as="geometry" />
        </mxCell>
        <mxCell id="5PsLchWqbpypYUlyOTgr-51" value="发送待办、消息" style="text;html=1;align=center;verticalAlign=middle;resizable=0;points=[];autosize=1;strokeColor=none;fillColor=none;" vertex="1" parent="1">
          <mxGeometry x="440" y="771" width="110" height="30" as="geometry" />
        </mxCell>
        <mxCell id="5PsLchWqbpypYUlyOTgr-53" value="这里展示只读的单据审批附件" style="ellipse;shape=cloud;whiteSpace=wrap;html=1;fillColor=#e3c800;strokeColor=#B09500;fontColor=#000000;" vertex="1" parent="1">
          <mxGeometry x="575" y="880" width="120" height="80" as="geometry" />
        </mxCell>
        <mxCell id="5PsLchWqbpypYUlyOTgr-57" value="是" style="text;html=1;align=center;verticalAlign=middle;resizable=0;points=[];autosize=1;strokeColor=none;fillColor=none;" vertex="1" parent="1">
          <mxGeometry x="790" y="728" width="40" height="30" as="geometry" />
        </mxCell>
        <mxCell id="5PsLchWqbpypYUlyOTgr-62" value="否" style="text;html=1;align=center;verticalAlign=middle;resizable=0;points=[];autosize=1;strokeColor=none;fillColor=none;" vertex="1" parent="1">
          <mxGeometry x="790" y="838" width="40" height="30" as="geometry" />
        </mxCell>
        <mxCell id="5PsLchWqbpypYUlyOTgr-66" style="edgeStyle=orthogonalEdgeStyle;rounded=0;orthogonalLoop=1;jettySize=auto;html=1;entryX=0.5;entryY=0;entryDx=0;entryDy=0;" edge="1" parent="1" source="5PsLchWqbpypYUlyOTgr-64" target="5PsLchWqbpypYUlyOTgr-9">
          <mxGeometry relative="1" as="geometry" />
        </mxCell>
        <mxCell id="5PsLchWqbpypYUlyOTgr-64" value="编辑保存数据" style="whiteSpace=wrap;html=1;fillColor=#60a917;fontColor=#ffffff;strokeColor=#2D7600;" vertex="1" parent="1">
          <mxGeometry x="-180" y="480" width="120" height="60" as="geometry" />
        </mxCell>
        <mxCell id="5PsLchWqbpypYUlyOTgr-67" value="否" style="text;html=1;align=center;verticalAlign=middle;resizable=0;points=[];autosize=1;strokeColor=none;fillColor=none;" vertex="1" parent="1">
          <mxGeometry x="-80" y="618" width="40" height="30" as="geometry" />
        </mxCell>
        <mxCell id="5PsLchWqbpypYUlyOTgr-68" value="是" style="text;html=1;align=center;verticalAlign=middle;resizable=0;points=[];autosize=1;strokeColor=none;fillColor=none;" vertex="1" parent="1">
          <mxGeometry x="-120" y="698" width="40" height="30" as="geometry" />
        </mxCell>
      </root>
    </mxGraphModel>
  </diagram>
</mxfile>
